<svg width="147" height="147" viewBox="0 0 147 147" fill="none" xmlns="http://www.w3.org/2000/svg">
<rect width="147" height="147" rx="73.5" fill="#F2CB05"/>
<line x1="17.3297" y1="25.6241" x2="74.3297" y2="75.6241" stroke="white"/>
<path d="M35.7697 37.7323L41.5115 31.16L43.7323 33.1001C44.2457 33.5487 44.5906 34.0046 44.7668 34.4679C44.9449 34.929 44.9804 35.3806 44.8733 35.8227C44.7662 36.2648 44.5435 36.6795 44.2052 37.0668C43.8669 37.454 43.4877 37.7282 43.0677 37.8894C42.6477 38.0507 42.1993 38.0739 41.7224 37.959C41.2474 37.8421 40.7553 37.5612 40.2462 37.1163L38.449 35.5463L39.077 34.8274L40.8485 36.3751C41.1994 36.6816 41.5266 36.877 41.8303 36.9612C42.1361 37.0473 42.4194 37.0382 42.6801 36.9341C42.9449 36.8296 43.1922 36.6458 43.4221 36.3827C43.652 36.1195 43.8037 35.8465 43.8773 35.5637C43.9508 35.2809 43.9263 34.9917 43.8037 34.6959C43.6829 34.398 43.4449 34.0939 43.0898 33.7837L41.6906 32.5613L36.5655 38.4276L35.7697 37.7323ZM41.4427 37.4826L40.4807 41.8481L39.5565 41.0406L40.5441 36.6976L41.4427 37.4826ZM41.8198 43.0179L40.9854 42.289L49.1405 37.8249L49.9621 38.5426L46.6335 47.2234L45.7991 46.4944L48.6686 39.246L48.6173 39.2011L41.8198 43.0179ZM44.3707 40.7197L47.734 43.6579L47.1172 44.364L43.7539 41.4257L44.3707 40.7197ZM51.6551 41.2666L52.2719 40.5606L57.2012 44.867L56.5844 45.573L54.5177 43.7674L49.3926 49.6338L48.5967 48.9385L53.7218 43.0721L51.6551 41.2666ZM59.2254 46.6354L53.4835 53.2077L52.6876 52.5124L58.4295 45.94L59.2254 46.6354ZM63.4957 56.1604C62.8901 56.8535 62.2416 57.3432 61.5501 57.6295C60.8587 57.9157 60.1752 58.0051 59.4995 57.8976C58.8238 57.7902 58.2057 57.4916 57.6451 57.0019C57.0846 56.5122 56.7057 55.9398 56.5085 55.2846C56.3113 54.6295 56.3081 53.9401 56.4989 53.2165C56.6897 52.4929 57.0879 51.7845 57.6935 51.0914C58.2991 50.3982 58.9476 49.9085 59.639 49.6223C60.3304 49.336 61.014 49.2466 61.6896 49.3541C62.3653 49.4615 62.9835 49.7601 63.544 50.2498C64.1045 50.7395 64.4834 51.3119 64.6806 51.9671C64.8778 52.6222 64.881 53.3116 64.6902 54.0352C64.4994 54.7588 64.1012 55.4672 63.4957 56.1604ZM62.7255 55.4875C63.2226 54.9184 63.547 54.3549 63.6987 53.797C63.8524 53.241 63.8556 52.7214 63.7083 52.238C63.5631 51.7565 63.2915 51.342 62.8935 50.9943C62.4956 50.6467 62.0473 50.4323 61.5485 50.3512C61.0519 50.2719 60.5374 50.3449 60.0049 50.57C59.4746 50.7971 58.9608 51.1951 58.4637 51.7642C57.9665 52.3333 57.641 52.8959 57.4872 53.4519C57.3356 54.0098 57.3324 54.5294 57.4776 55.0109C57.625 55.4942 57.8976 55.9097 58.2956 56.2574C58.6935 56.605 59.1408 56.8185 59.6374 56.8977C60.1362 56.9789 60.6507 56.9059 61.181 56.6789C61.7135 56.4537 62.2283 56.0566 62.7255 55.4875Z" fill="white"/>
</svg>
