<svg width="190" height="148" viewBox="0 0 190 148" fill="none" xmlns="http://www.w3.org/2000/svg">
<rect x="43" y="1" width="147" height="147" fill="#F2CB05"/>
<line x1="27.5" y1="2.18557e-08" x2="27.5" y2="148" stroke="white"/>
<path d="M8.09091 89.2841C7.37121 89.3693 6.8125 89.715 6.41477 90.321C6.01704 90.9271 5.81818 91.6705 5.81818 92.5511C5.81818 93.1951 5.92235 93.7585 6.13068 94.2415C6.33901 94.7197 6.62547 95.0937 6.99006 95.3636C7.35464 95.6288 7.76894 95.7614 8.23295 95.7614C8.62121 95.7614 8.95502 95.669 9.23437 95.4844C9.509 95.295 9.73864 95.0535 9.92329 94.7599C10.1032 94.4664 10.2524 94.1586 10.3707 93.8366C10.4844 93.5147 10.5767 93.2187 10.6477 92.9489L11.0455 91.4716C11.1449 91.0928 11.2822 90.6714 11.4574 90.2074C11.6326 89.7386 11.8717 89.2912 12.1747 88.8651C12.473 88.4342 12.8565 88.0791 13.3253 87.7997C13.794 87.5204 14.3693 87.3807 15.0511 87.3807C15.8371 87.3807 16.5473 87.5866 17.1818 87.9986C17.8163 88.4058 18.3205 89.0024 18.6946 89.7884C19.0687 90.5696 19.2557 91.5189 19.2557 92.6364C19.2557 93.678 19.0876 94.58 18.7514 95.3423C18.4152 96.0999 17.9465 96.6965 17.3452 97.1321C16.7438 97.563 16.0455 97.8068 15.25 97.8636L15.25 96.0455C15.7992 95.9981 16.2538 95.8134 16.6136 95.4915C16.9687 95.1648 17.2339 94.7528 17.4091 94.2557C17.5795 93.7538 17.6648 93.214 17.6648 92.6364C17.6648 91.964 17.5559 91.3603 17.3381 90.8253C17.1155 90.2902 16.8078 89.8665 16.4148 89.554C16.017 89.2415 15.553 89.0852 15.0227 89.0852C14.5398 89.0852 14.1468 89.2202 13.8437 89.4901C13.5407 89.7599 13.2945 90.1151 13.1051 90.5554C12.9157 90.9957 12.75 91.4716 12.608 91.983L12.0966 93.7727C11.7699 94.9091 11.3035 95.8087 10.6974 96.4716C10.0914 97.1345 9.29829 97.4659 8.31818 97.4659C7.50379 97.4659 6.79356 97.2457 6.1875 96.8054C5.5767 96.3603 5.10322 95.7637 4.76704 95.0156C4.42614 94.2628 4.25568 93.4223 4.25568 92.4943C4.25568 91.5568 4.42377 90.7235 4.75994 89.9943C5.09138 89.2652 5.54593 88.6875 6.12358 88.2614C6.70123 87.8305 7.35701 87.6032 8.09091 87.5795L8.09091 89.2841ZM4.45454 82.7234L19 82.7234L19 84.4847L4.45454 84.4847L4.45454 82.7234ZM19 74.7031L19 79.1918L4.45454 79.1918L4.45454 74.5043C4.45454 73.0933 4.74574 71.8859 5.32812 70.8821C5.90577 69.8783 6.73674 69.1089 7.82102 68.5739C8.90057 68.0388 10.1932 67.7713 11.6989 67.7713C13.214 67.7713 14.5185 68.0412 15.6122 68.581C16.7012 69.1207 17.5393 69.9067 18.1264 70.9389C18.7088 71.9711 19 73.2259 19 74.7031ZM17.4375 77.4304L17.4375 74.8168C17.4375 73.6141 17.2055 72.6174 16.7415 71.8267C16.2775 71.036 15.6169 70.4465 14.7599 70.0582C13.9029 69.67 12.8826 69.4759 11.6989 69.4759C10.5246 69.4759 9.51373 69.6676 8.66619 70.0511C7.81392 70.4347 7.16051 71.0076 6.70596 71.7699C6.24668 72.5322 6.01704 73.4815 6.01704 74.6179L6.01704 77.4304L17.4375 77.4304ZM19 64.8168L4.45454 64.8168L4.45454 56.0384L6.01704 56.0384L6.01704 63.0554L10.9318 63.0554L10.9318 56.4929L12.4943 56.4929L12.4943 63.0554L17.4375 63.0554L17.4375 55.9247L19 55.9247L19 64.8168Z" fill="white"/>
</svg>
