<svg width="181" height="160" viewBox="0 0 181 160" fill="none" xmlns="http://www.w3.org/2000/svg">
<line x1="171" y1="130.5" x2="41" y2="130.5" stroke="white"/>
<line x1="27.5" y1="2.18557e-08" x2="27.5" y2="113" stroke="white"/>
<path d="M19 97.2386L4.45454 97.2386L4.45454 95.4773L10.9318 95.4773L10.9318 87.7216L4.45454 87.7216L4.45454 85.9602L19 85.9602L19 87.7216L12.4943 87.7216L12.4943 95.4773L19 95.4773L19 97.2386ZM19 82.4339L4.45454 82.4339L4.45454 73.6555L6.01704 73.6555L6.01704 80.6726L10.9318 80.6726L10.9318 74.1101L12.4943 74.1101L12.4943 80.6726L17.4375 80.6726L17.4375 73.5419L19 73.5419L19 82.4339ZM4.45454 68.7195L19 68.7195L19 70.4808L4.45454 70.4808L4.45454 68.7195ZM9 55.2447C8.52178 55.4009 8.09327 55.6069 7.71449 55.8626C7.33096 56.1135 7.00426 56.4142 6.73437 56.7646C6.46449 57.1102 6.25852 57.5032 6.11647 57.9435C5.97443 58.3839 5.90341 58.8668 5.90341 59.3924C5.90341 60.2541 6.12595 61.0378 6.57102 61.7433C7.0161 62.4487 7.67187 63.0098 8.53835 63.4265C9.40483 63.8432 10.4678 64.0515 11.7273 64.0515C12.9867 64.0515 14.0497 63.8408 14.9162 63.4194C15.7827 62.998 16.4384 62.4274 16.8835 61.7077C17.3286 60.988 17.5511 60.1784 17.5511 59.2788C17.5511 58.4454 17.3736 57.7115 17.0185 57.0771C16.6586 56.4379 16.152 55.9407 15.4986 55.5856C14.8404 55.2257 14.0663 55.0458 13.1761 55.0458L13.2898 54.506L13.2898 58.881L11.7273 58.881L11.7273 53.3413L13.2898 53.3413C14.4877 53.3413 15.5294 53.5969 16.4148 54.1083C17.3002 54.6149 17.9867 55.3157 18.4744 56.2106C18.9574 57.1007 19.1989 58.1235 19.1989 59.2788C19.1989 60.5666 18.8958 61.6983 18.2898 62.6736C17.6837 63.6443 16.822 64.4019 15.7045 64.9464C14.5871 65.4861 13.2614 65.756 11.7273 65.756C10.5767 65.756 9.54214 65.6022 8.62358 65.2944C7.70028 64.9819 6.9143 64.5415 6.26562 63.9734C5.61695 63.4052 5.11979 62.7328 4.77415 61.9563C4.4285 61.1798 4.25568 60.3252 4.25568 59.3924C4.25568 58.6254 4.37168 57.9104 4.60369 57.2475C4.83096 56.5799 5.1553 55.9857 5.5767 55.4648C5.99337 54.9393 6.4929 54.5013 7.07528 54.1509C7.65293 53.8005 8.29451 53.5591 9 53.4265L9 55.2447ZM19 50.3246L4.45454 50.3246L4.45454 48.5632L10.9318 48.5632L10.9318 40.8075L4.45454 40.8075L4.45454 39.0462L19 39.0462L19 40.8075L12.4943 40.8075L12.4943 48.5632L19 48.5632L19 50.3246ZM6.01704 36.3153L4.45454 36.3153L4.45454 25.4062L6.01704 25.4062L6.01704 29.9801L19 29.9801L19 31.7415L6.01704 31.7415L6.01704 36.3153Z" fill="white"/>
<path d="M81.7614 155V140.455H86.8466C87.8598 140.455 88.6955 140.63 89.3537 140.98C90.0118 141.326 90.5019 141.792 90.8239 142.379C91.1458 142.962 91.3068 143.608 91.3068 144.318C91.3068 144.943 91.1955 145.459 90.973 145.866C90.7552 146.274 90.4664 146.596 90.1065 146.832C89.7514 147.069 89.3655 147.244 88.9489 147.358V147.5C89.3939 147.528 89.8414 147.685 90.2912 147.969C90.741 148.253 91.1174 148.66 91.4205 149.19C91.7235 149.721 91.875 150.369 91.875 151.136C91.875 151.866 91.7093 152.521 91.3778 153.104C91.0464 153.686 90.5232 154.148 89.8082 154.489C89.0933 154.83 88.1629 155 87.017 155H81.7614ZM83.5227 153.438H87.017C88.1676 153.438 88.9844 153.215 89.4673 152.77C89.955 152.32 90.1989 151.776 90.1989 151.136C90.1989 150.644 90.0734 150.189 89.8224 149.773C89.5715 149.351 89.214 149.015 88.75 148.764C88.286 148.509 87.7367 148.381 87.1023 148.381H83.5227V153.438ZM83.5227 146.847H86.7898C87.3201 146.847 87.7983 146.742 88.2244 146.534C88.6553 146.326 88.9962 146.032 89.2472 145.653C89.5028 145.275 89.6307 144.83 89.6307 144.318C89.6307 143.679 89.4081 143.137 88.9631 142.692C88.518 142.242 87.8125 142.017 86.8466 142.017H83.5227V146.847ZM95.3658 155H93.5192L98.8601 140.455H100.678L106.019 155H104.173L99.826 142.756H99.7124L95.3658 155ZM96.0476 149.318H103.491V150.881H96.0476V149.318ZM116.239 144.091C116.154 143.371 115.808 142.812 115.202 142.415C114.596 142.017 113.853 141.818 112.972 141.818C112.328 141.818 111.765 141.922 111.282 142.131C110.804 142.339 110.43 142.625 110.16 142.99C109.895 143.355 109.762 143.769 109.762 144.233C109.762 144.621 109.854 144.955 110.039 145.234C110.228 145.509 110.47 145.739 110.763 145.923C111.057 146.103 111.365 146.252 111.687 146.371C112.009 146.484 112.305 146.577 112.575 146.648L114.052 147.045C114.431 147.145 114.852 147.282 115.316 147.457C115.785 147.633 116.232 147.872 116.658 148.175C117.089 148.473 117.444 148.857 117.724 149.325C118.003 149.794 118.143 150.369 118.143 151.051C118.143 151.837 117.937 152.547 117.525 153.182C117.118 153.816 116.521 154.321 115.735 154.695C114.954 155.069 114.004 155.256 112.887 155.256C111.845 155.256 110.943 155.088 110.181 154.751C109.424 154.415 108.827 153.946 108.391 153.345C107.96 152.744 107.717 152.045 107.66 151.25H109.478C109.525 151.799 109.71 152.254 110.032 152.614C110.359 152.969 110.771 153.234 111.268 153.409C111.77 153.58 112.309 153.665 112.887 153.665C113.559 153.665 114.163 153.556 114.698 153.338C115.233 153.116 115.657 152.808 115.969 152.415C116.282 152.017 116.438 151.553 116.438 151.023C116.438 150.54 116.303 150.147 116.033 149.844C115.763 149.541 115.408 149.295 114.968 149.105C114.528 148.916 114.052 148.75 113.54 148.608L111.751 148.097C110.614 147.77 109.715 147.304 109.052 146.697C108.389 146.091 108.058 145.298 108.058 144.318C108.058 143.504 108.278 142.794 108.718 142.188C109.163 141.577 109.76 141.103 110.508 140.767C111.261 140.426 112.101 140.256 113.029 140.256C113.967 140.256 114.8 140.424 115.529 140.76C116.258 141.091 116.836 141.546 117.262 142.124C117.693 142.701 117.92 143.357 117.944 144.091H116.239ZM121.039 155V140.455H129.817V142.017H122.8V146.932H129.363V148.494H122.8V153.438H129.931V155H121.039Z" fill="white"/>
<path d="M106 0L170.952 112.5H41.0481L106 0Z" fill="#F2CB05"/>
</svg>
