<svg width="46" height="29" viewBox="0 0 46 29" fill="none" xmlns="http://www.w3.org/2000/svg">
<path d="M1 12V3.5H14H45.5V27H1V20C2.33333 19.6667 5 18.4 5 16C5 13.6 2.33333 12.3333 1 12Z" stroke="#C25F28"/>
<path d="M28.484 10.956C28.484 11.628 28.38 12.232 28.172 12.768C27.964 13.296 27.684 13.744 27.332 14.112C26.988 14.472 26.584 14.748 26.12 14.94C25.656 15.132 25.172 15.228 24.668 15.228C24.124 15.228 23.62 15.132 23.156 14.94C22.7 14.748 22.3 14.472 21.956 14.112C21.612 13.744 21.344 13.296 21.152 12.768C20.96 12.232 20.864 11.628 20.864 10.956C20.864 10.268 20.96 9.656 21.152 9.12C21.344 8.584 21.612 8.132 21.956 7.764C22.3 7.396 22.7 7.116 23.156 6.924C23.62 6.732 24.124 6.636 24.668 6.636C25.204 6.636 25.704 6.732 26.168 6.924C26.64 7.116 27.044 7.396 27.38 7.764C27.724 8.132 27.992 8.584 28.184 9.12C28.384 9.656 28.484 10.268 28.484 10.956ZM26.816 10.956C26.816 10.428 26.76 9.98 26.648 9.612C26.536 9.244 26.38 8.944 26.18 8.712C25.988 8.472 25.76 8.3 25.496 8.196C25.24 8.092 24.964 8.04 24.668 8.04C24.372 8.04 24.092 8.092 23.828 8.196C23.572 8.3 23.348 8.472 23.156 8.712C22.964 8.944 22.812 9.244 22.7 9.612C22.596 9.98 22.544 10.428 22.544 10.956C22.544 11.476 22.596 11.92 22.7 12.288C22.812 12.648 22.964 12.944 23.156 13.176C23.348 13.4 23.572 13.564 23.828 13.668C24.092 13.764 24.372 13.812 24.668 13.812C24.964 13.812 25.24 13.764 25.496 13.668C25.76 13.564 25.988 13.4 26.18 13.176C26.38 12.944 26.536 12.648 26.648 12.288C26.76 11.92 26.816 11.476 26.816 10.956ZM34.496 7.236C34.6 7.1 34.708 6.996 34.82 6.924C34.94 6.844 35.096 6.804 35.288 6.804H36.824L24.26 23.652C24.18 23.756 24.084 23.84 23.972 23.904C23.86 23.968 23.728 24 23.576 24H21.992L34.496 7.236ZM37.988 19.944C37.988 20.616 37.884 21.216 37.676 21.744C37.468 22.272 37.188 22.72 36.836 23.088C36.492 23.448 36.088 23.724 35.624 23.916C35.168 24.108 34.688 24.204 34.184 24.204C33.64 24.204 33.136 24.108 32.672 23.916C32.216 23.724 31.816 23.448 31.472 23.088C31.128 22.72 30.86 22.272 30.668 21.744C30.476 21.216 30.38 20.616 30.38 19.944C30.38 19.256 30.476 18.644 30.668 18.108C30.86 17.564 31.128 17.108 31.472 16.74C31.816 16.372 32.216 16.092 32.672 15.9C33.136 15.708 33.64 15.612 34.184 15.612C34.72 15.612 35.22 15.708 35.684 15.9C36.148 16.092 36.552 16.372 36.896 16.74C37.24 17.108 37.508 17.564 37.7 18.108C37.892 18.644 37.988 19.256 37.988 19.944ZM36.332 19.944C36.332 19.416 36.276 18.968 36.164 18.6C36.052 18.224 35.896 17.92 35.696 17.688C35.504 17.456 35.276 17.288 35.012 17.184C34.756 17.08 34.48 17.028 34.184 17.028C33.888 17.028 33.608 17.08 33.344 17.184C33.088 17.288 32.864 17.456 32.672 17.688C32.48 17.92 32.328 18.224 32.216 18.6C32.112 18.968 32.06 19.416 32.06 19.944C32.06 20.464 32.112 20.904 32.216 21.264C32.328 21.624 32.48 21.92 32.672 22.152C32.864 22.376 33.088 22.54 33.344 22.644C33.608 22.74 33.888 22.788 34.184 22.788C34.48 22.788 34.756 22.74 35.012 22.644C35.276 22.54 35.504 22.376 35.696 22.152C35.896 21.92 36.052 21.624 36.164 21.264C36.276 20.904 36.332 20.464 36.332 19.944Z" fill="#C25F28"/>
<path d="M14 4V27" stroke="#C25F28" stroke-dasharray="2 2"/>
</svg>
