<svg width="19" height="35" viewBox="0 0 19 35" fill="none" xmlns="http://www.w3.org/2000/svg">
<path d="M7.964 30.216C6.512 30.084 5.186 29.73 3.986 29.154C2.798 28.566 1.772 27.822 0.908 26.922L1.862 25.446C1.946 25.314 2.066 25.206 2.222 25.122C2.378 25.038 2.54 24.996 2.708 24.996C2.936 24.996 3.194 25.11 3.482 25.338C3.77 25.566 4.124 25.83 4.544 26.13C4.964 26.418 5.462 26.7 6.038 26.976C6.626 27.252 7.328 27.438 8.144 27.534L8.81 17.976C7.97 17.724 7.142 17.442 6.326 17.13C5.522 16.806 4.796 16.392 4.148 15.888C3.512 15.372 2.996 14.73 2.6 13.962C2.216 13.182 2.024 12.21 2.024 11.046C2.024 10.17 2.192 9.318 2.528 8.49C2.876 7.65 3.374 6.906 4.022 6.258C4.682 5.61 5.492 5.082 6.452 4.674C7.412 4.254 8.516 4.02 9.764 3.972L9.944 1.38C9.968 1.152 10.058 0.947999 10.214 0.767999C10.37 0.587999 10.58 0.497999 10.844 0.497999H12.032L11.78 4.062C13.04 4.218 14.126 4.542 15.038 5.034C15.95 5.526 16.766 6.12 17.486 6.816L16.712 8.004C16.472 8.364 16.196 8.544 15.884 8.544C15.716 8.544 15.506 8.472 15.254 8.328C15.014 8.172 14.72 7.998 14.372 7.806C14.024 7.602 13.622 7.404 13.166 7.212C12.71 7.008 12.188 6.864 11.6 6.78L11.006 15.492C11.87 15.756 12.722 16.044 13.562 16.356C14.402 16.668 15.158 17.07 15.83 17.562C16.502 18.054 17.042 18.672 17.45 19.416C17.87 20.148 18.08 21.066 18.08 22.17C18.08 23.25 17.9 24.264 17.54 25.212C17.18 26.16 16.652 26.994 15.956 27.714C15.272 28.434 14.426 29.022 13.418 29.478C12.422 29.922 11.282 30.18 9.998 30.252L9.782 33.42C9.758 33.648 9.662 33.846 9.494 34.014C9.338 34.194 9.134 34.284 8.882 34.284H7.694L7.964 30.216ZM15.038 22.674C15.038 22.074 14.924 21.558 14.696 21.126C14.48 20.694 14.18 20.322 13.796 20.01C13.412 19.698 12.962 19.428 12.446 19.2C11.93 18.972 11.378 18.762 10.79 18.57L10.178 27.534C10.958 27.462 11.648 27.294 12.248 27.03C12.86 26.754 13.37 26.406 13.778 25.986C14.198 25.566 14.51 25.08 14.714 24.528C14.93 23.964 15.038 23.346 15.038 22.674ZM5.048 10.722C5.048 11.298 5.15 11.802 5.354 12.234C5.558 12.654 5.84 13.026 6.2 13.35C6.56 13.674 6.98 13.956 7.46 14.196C7.94 14.436 8.462 14.652 9.026 14.844L9.566 6.726C8.786 6.798 8.108 6.954 7.532 7.194C6.968 7.434 6.5 7.734 6.128 8.094C5.768 8.454 5.498 8.862 5.318 9.318C5.138 9.762 5.048 10.23 5.048 10.722Z" fill="white"/>
</svg>
