<svg width="47" height="47" viewBox="0 0 47 47" fill="none" xmlns="http://www.w3.org/2000/svg">
<circle cx="23.5" cy="23.5" r="23.5" fill="white"/>
<circle cx="23.5" cy="23.5" r="23.5" stroke="#C25F28"/>
<path d="M3.21918 18.6712H12.5548L13.136 20.2808M36.6986 30.2603H16.7397L13.136 20.2808M36.6986 30.2603L40.2397 20.2808H13.136M36.6986 30.2603V32.8356H16.7397" stroke="#C25F28" stroke-width="2"/>
<circle cx="19.9589" cy="34.4452" r="1" stroke="#C25F28" stroke-width="1.86301"/>
<circle cx="32.8356" cy="34.4452" r="1" stroke="#C25F28" stroke-width="1.86301"/>
<path d="M17.0616 20.6027V30.2603M20.2808 20.6027V30.2603" stroke="#C25F28"/>
<path d="M23.1781 20.2808V29.9384M26.3973 20.2808V29.9384" stroke="#C25F28"/>
<path d="M29.6164 20.2808V29.9384M32.8356 20.2808V29.9384" stroke="#C25F28"/>
<path d="M36.0548 20.2808V29.9384M14.1644 22.5342H39.274M15.4521 26.3973H37.6644" stroke="#C25F28"/>
</svg>
