<svg width="190" height="119" viewBox="0 0 190 119" fill="none" xmlns="http://www.w3.org/2000/svg">
<rect x="43" y="1.00001" width="147" height="73" fill="#F2CB05"/>
<line x1="28.5" y1="1.00001" x2="28.5" y2="74" stroke="white"/>
<path d="M19 73.2386L4.45454 73.2386L4.45454 71.4773L10.9318 71.4773L10.9318 63.7216L4.45454 63.7216L4.45454 61.9602L19 61.9602L19 63.7216L12.4943 63.7216L12.4943 71.4773L19 71.4773L19 73.2386ZM19 58.4339L4.45454 58.4339L4.45454 49.6555L6.01704 49.6555L6.01704 56.6726L10.9318 56.6726L10.9318 50.1101L12.4943 50.1101L12.4943 56.6726L17.4375 56.6726L17.4375 49.5419L19 49.5419L19 58.4339ZM4.45454 44.7195L19 44.7195L19 46.4808L4.45454 46.4808L4.45454 44.7195ZM9 31.2447C8.52178 31.4009 8.09327 31.6069 7.71449 31.8626C7.33096 32.1135 7.00426 32.4142 6.73437 32.7646C6.46449 33.1102 6.25852 33.5032 6.11647 33.9435C5.97443 34.3839 5.90341 34.8668 5.90341 35.3924C5.90341 36.2541 6.12595 37.0378 6.57102 37.7433C7.0161 38.4487 7.67187 39.0098 8.53835 39.4265C9.40483 39.8432 10.4678 40.0515 11.7273 40.0515C12.9867 40.0515 14.0497 39.8408 14.9162 39.4194C15.7827 38.998 16.4384 38.4274 16.8835 37.7077C17.3286 36.988 17.5511 36.1784 17.5511 35.2788C17.5511 34.4454 17.3736 33.7115 17.0185 33.0771C16.6586 32.4379 16.152 31.9407 15.4986 31.5856C14.8404 31.2257 14.0663 31.0458 13.1761 31.0458L13.2898 30.506L13.2898 34.881L11.7273 34.881L11.7273 29.3413L13.2898 29.3413C14.4877 29.3413 15.5294 29.5969 16.4148 30.1083C17.3002 30.6149 17.9867 31.3157 18.4744 32.2106C18.9574 33.1007 19.1989 34.1235 19.1989 35.2788C19.1989 36.5666 18.8958 37.6983 18.2898 38.6736C17.6837 39.6443 16.822 40.4019 15.7045 40.9464C14.5871 41.4861 13.2614 41.756 11.7273 41.756C10.5767 41.756 9.54214 41.6022 8.62358 41.2944C7.70028 40.9819 6.9143 40.5415 6.26562 39.9734C5.61695 39.4052 5.11979 38.7328 4.77415 37.9563C4.4285 37.1798 4.25568 36.3252 4.25568 35.3924C4.25568 34.6254 4.37168 33.9104 4.60369 33.2475C4.83096 32.5799 5.1553 31.9857 5.5767 31.4648C5.99337 30.9393 6.4929 30.5013 7.07528 30.1509C7.65293 29.8005 8.29451 29.5591 9 29.4265L9 31.2447ZM19 26.3246L4.45454 26.3246L4.45454 24.5632L10.9318 24.5632L10.9318 16.8075L4.45454 16.8075L4.45454 15.0462L19 15.0462L19 16.8075L12.4943 16.8075L12.4943 24.5632L19 24.5632L19 26.3246ZM6.01704 12.3153L4.45454 12.3153L4.45454 1.40625L6.01704 1.40625L6.01704 5.98011L19 5.98011L19 7.74148L6.01704 7.74148L6.01704 12.3153Z" fill="white"/>
<line x1="42" y1="86.5" x2="190" y2="86.5" stroke="white"/>
<path d="M93.7614 114V99.4545H98.8466C99.8598 99.4545 100.696 99.6297 101.354 99.9801C102.012 100.326 102.502 100.792 102.824 101.379C103.146 101.962 103.307 102.608 103.307 103.318C103.307 103.943 103.196 104.459 102.973 104.866C102.755 105.274 102.466 105.596 102.107 105.832C101.751 106.069 101.366 106.244 100.949 106.358V106.5C101.394 106.528 101.841 106.685 102.291 106.969C102.741 107.253 103.117 107.66 103.42 108.19C103.723 108.721 103.875 109.369 103.875 110.136C103.875 110.866 103.709 111.521 103.378 112.104C103.046 112.686 102.523 113.148 101.808 113.489C101.093 113.83 100.163 114 99.017 114H93.7614ZM95.5227 112.438H99.017C100.168 112.438 100.984 112.215 101.467 111.77C101.955 111.32 102.199 110.776 102.199 110.136C102.199 109.644 102.073 109.189 101.822 108.773C101.571 108.351 101.214 108.015 100.75 107.764C100.286 107.509 99.7367 107.381 99.1023 107.381H95.5227V112.438ZM95.5227 105.847H98.7898C99.3201 105.847 99.7983 105.742 100.224 105.534C100.655 105.326 100.996 105.032 101.247 104.653C101.503 104.275 101.631 103.83 101.631 103.318C101.631 102.679 101.408 102.137 100.963 101.692C100.518 101.242 99.8125 101.017 98.8466 101.017H95.5227V105.847ZM107.366 114H105.519L110.86 99.4545H112.678L118.019 114H116.173L111.826 101.756H111.712L107.366 114ZM108.048 108.318H115.491V109.881H108.048V108.318ZM128.239 103.091C128.154 102.371 127.808 101.812 127.202 101.415C126.596 101.017 125.853 100.818 124.972 100.818C124.328 100.818 123.765 100.922 123.282 101.131C122.804 101.339 122.43 101.625 122.16 101.99C121.895 102.355 121.762 102.769 121.762 103.233C121.762 103.621 121.854 103.955 122.039 104.234C122.228 104.509 122.47 104.739 122.763 104.923C123.057 105.103 123.365 105.252 123.687 105.371C124.009 105.484 124.305 105.577 124.575 105.648L126.052 106.045C126.431 106.145 126.852 106.282 127.316 106.457C127.785 106.633 128.232 106.872 128.658 107.175C129.089 107.473 129.444 107.857 129.724 108.325C130.003 108.794 130.143 109.369 130.143 110.051C130.143 110.837 129.937 111.547 129.525 112.182C129.118 112.816 128.521 113.321 127.735 113.695C126.954 114.069 126.004 114.256 124.887 114.256C123.845 114.256 122.943 114.088 122.181 113.751C121.424 113.415 120.827 112.946 120.391 112.345C119.96 111.744 119.717 111.045 119.66 110.25H121.478C121.525 110.799 121.71 111.254 122.032 111.614C122.359 111.969 122.771 112.234 123.268 112.409C123.77 112.58 124.309 112.665 124.887 112.665C125.559 112.665 126.163 112.556 126.698 112.338C127.233 112.116 127.657 111.808 127.969 111.415C128.282 111.017 128.438 110.553 128.438 110.023C128.438 109.54 128.303 109.147 128.033 108.844C127.763 108.541 127.408 108.295 126.968 108.105C126.528 107.916 126.052 107.75 125.54 107.608L123.751 107.097C122.614 106.77 121.715 106.304 121.052 105.697C120.389 105.091 120.058 104.298 120.058 103.318C120.058 102.504 120.278 101.794 120.718 101.188C121.163 100.577 121.76 100.103 122.508 99.767C123.261 99.4261 124.101 99.2557 125.029 99.2557C125.967 99.2557 126.8 99.4238 127.529 99.7599C128.258 100.091 128.836 100.546 129.262 101.124C129.693 101.701 129.92 102.357 129.944 103.091H128.239ZM133.039 114V99.4545H141.817V101.017H134.8V105.932H141.363V107.494H134.8V112.438H141.931V114H133.039Z" fill="white"/>
</svg>
